<svg width="24" height="24" viewBox="0 0 24 24" fill="none" xmlns="http://www.w3.org/2000/svg">
<path d="M10.75 22H20C20.5304 22 21.0391 21.7893 21.4142 21.4142C21.7893 21.0391 22 20.5304 22 20V12L18 10M14 22V18C14 17.4696 13.7893 16.9609 13.4142 16.5858C13.2553 16.4269 13.0725 16.2975 12.8742 16.2012M2 13.5V12L6 10V5M20 6L12 2L4 6M18 5V22M10 9C10 10.1046 10.8954 11 12 11C13.1046 11 14 10.1046 14 9C14 7.89543 13.1046 7 12 7C10.8954 7 10 7.89543 10 9Z" stroke="#23313C" stroke-width="2" stroke-linecap="round" stroke-linejoin="round"/>
<path d="M6 22L6 14M6 14L10 18M6 14L2 18" stroke="#F83C80" stroke-width="2" stroke-linecap="round" stroke-linejoin="round"/>
</svg>
