<svg width="24" height="24" viewBox="0 0 24 24" fill="none" xmlns="http://www.w3.org/2000/svg">
<path d="M13.75 22H4.5C3.96957 22 3.46086 21.7893 3.08579 21.4142C2.71071 21.0391 2.5 20.5304 2.5 20V12L6.5 10M10.5 22V18C10.5 17.4696 10.7107 16.9609 11.0858 16.5858C11.2447 16.4269 11.4275 16.2975 11.6258 16.2012M22.5 13.5V12L18.5 10V5M4.5 6L12.5 2L20.5 6M6.5 5V22M14.5 9C14.5 10.1046 13.6046 11 12.5 11C11.3954 11 10.5 10.1046 10.5 9C10.5 7.89543 11.3954 7 12.5 7C13.6046 7 14.5 7.89543 14.5 9Z" stroke="#23313C" stroke-width="2" stroke-linecap="round" stroke-linejoin="round"/>
<path d="M18.5 14L18.5 22M18.5 22L22.5 18M18.5 22L14.5 18" stroke="#0391DD" stroke-width="2" stroke-linecap="round" stroke-linejoin="round"/>
</svg>
