<svg width="25" height="24" viewBox="0 0 25 24" fill="none" xmlns="http://www.w3.org/2000/svg">
<path d="M10.5 2H14.5M12.5 14V10M4.5 13C4.74486 11.056 5.69466 9.26941 7.16925 7.97914C8.64384 6.68888 10.5407 5.98464 12.5 6C13.794 6.00138 15.0684 6.31665 16.2139 6.91876C17.3593 7.52088 18.3416 8.39187 19.0764 9.45702C19.8113 10.5222 20.2768 11.7497 20.433 13.0343C20.5892 14.3189 20.4315 15.6222 19.9733 16.8324C19.5152 18.0426 18.7703 19.1236 17.8025 19.9827C16.8348 20.8418 15.6731 21.4533 14.4171 21.7648C13.1611 22.0763 11.8482 22.0784 10.5912 21.771C9.33422 21.4637 8.17054 20.8559 7.2 20L4.5 17.6M9.5 17H4.5V22" stroke="#767F86" stroke-width="2" stroke-linecap="round" stroke-linejoin="round"/>
</svg>
