<svg width="16" height="16" viewBox="0 0 16 16" fill="none" xmlns="http://www.w3.org/2000/svg">
<g clip-path="url(#clip0_1252_4155)">
<path d="M10.6665 3.62044H11.9998C12.3535 3.62044 12.6926 3.76092 12.9426 4.01097C13.1927 4.26102 13.3332 4.60015 13.3332 4.95378V14.2871C13.3332 14.6407 13.1927 14.9799 12.9426 15.2299C12.6926 15.48 12.3535 15.6204 11.9998 15.6204H3.99984C3.64622 15.6204 3.30708 15.48 3.05703 15.2299C2.80698 14.9799 2.6665 14.6407 2.6665 14.2871V4.95378C2.6665 4.60015 2.80698 4.26102 3.05703 4.01097C3.30708 3.76092 3.64622 3.62044 3.99984 3.62044H5.33317M7.99984 8.28711H10.6665M7.99984 11.6204H10.6665M5.33317 8.28711H5.33984M5.33317 11.6204H5.33984M5.99984 2.28711H9.99984C10.368 2.28711 10.6665 2.58559 10.6665 2.95378V4.28711C10.6665 4.6553 10.368 4.95378 9.99984 4.95378H5.99984C5.63165 4.95378 5.33317 4.6553 5.33317 4.28711V2.95378C5.33317 2.58559 5.63165 2.28711 5.99984 2.28711Z" stroke="#23313C" stroke-width="1.5" stroke-linecap="round" stroke-linejoin="round"/>
</g>
<defs>
<clipPath id="clip0_1252_4155">
<rect width="16" height="16" fill="white" transform="translate(0 0.953125)"/>
</clipPath>
</defs>
</svg>
