<svg width="16" height="16" viewBox="0 0 16 16" fill="none" xmlns="http://www.w3.org/2000/svg">
<path d="M8.82252 13.5014L13.9999 8.20008M10.6665 4.00008L5.05718 9.72408C4.80722 9.97412 4.6668 10.3132 4.6668 10.6667C4.6668 11.0203 4.80722 11.3594 5.05718 11.6094C5.30722 11.8594 5.6463 11.9998 5.99985 11.9998C6.3534 11.9998 6.69248 11.8594 6.94252 11.6094L12.5519 5.88541C13.0518 5.38534 13.3326 4.70719 13.3326 4.00008C13.3326 3.29298 13.0518 2.61482 12.5519 2.11475C12.0518 1.61483 11.3736 1.33398 10.6665 1.33398C9.95941 1.33398 9.28126 1.61483 8.78118 2.11475L3.17118 7.83808C2.42097 8.58829 1.99951 9.60579 1.99951 10.6667C1.99951 11.7277 2.42097 12.7452 3.17118 13.4954C3.92139 14.2456 4.93889 14.6671 5.99985 14.6671C7.06081 14.6671 8.07831 14.2456 8.82852 13.4954" stroke="#0391DD" stroke-width="1.5" stroke-linecap="round" stroke-linejoin="round"/>
</svg>
