<svg width="16" height="16" viewBox="0 0 16 16" fill="none" xmlns="http://www.w3.org/2000/svg">
<path d="M8.00035 9.6195V14.9528M8.00035 14.9528L5.33368 12.2862M8.00035 14.9528L10.667 12.2862M2.92901 11.1322C2.38452 10.6559 1.95823 10.0595 1.68379 9.39012C1.40935 8.72076 1.29429 7.99677 1.34769 7.27532C1.40109 6.55386 1.62149 5.8547 1.99149 5.23305C2.36148 4.6114 2.87093 4.08428 3.47962 3.69331C4.0883 3.30235 4.77955 3.05825 5.49876 2.9803C6.21798 2.90234 6.94547 2.99267 7.62379 3.24413C8.3021 3.4956 8.91267 3.90133 9.40726 4.42927C9.90186 4.95721 10.2669 5.59291 10.4737 6.28617H11.667C12.3151 6.28609 12.9457 6.49585 13.4646 6.88408C13.9835 7.2723 14.3627 7.8181 14.5455 8.43982C14.7284 9.06154 14.7049 9.72575 14.4788 10.3331C14.2527 10.9404 13.8359 11.4581 13.291 11.8088" stroke="#FAFAFB" stroke-width="1.5" stroke-linecap="round" stroke-linejoin="round"/>
</svg>
